{
    "accessors" : [
        {
            "bufferView" : 0,
            "componentType" : 5123,
            "count" : 2988,
            "max" : [
                2055
            ],
            "min" : [
                0
            ],
            "type" : "SCALAR"
        },
        {
            "bufferView" : 1,
            "componentType" : 5126,
            "count" : 2056,
            "max" : [
                1.1145706176757812,
                5.990782737731934,
                1.11457097530365
            ],
            "min" : [
                -1.114569067955017,
                -1.0000004768371582,
                -1.1145679950714111
            ],
            "type" : "VEC3"
        },
        {
            "bufferView" : 2,
            "componentType" : 5126,
            "count" : 2056,
            "max" : [
                1.0,
                1.0,
                0.9999999403953552
            ],
            "min" : [
                -1.0,
                -1.0,
                -0.9999999403953552
            ],
            "type" : "VEC3"
        },
        {
            "bufferView" : 3,
            "componentType" : 5123,
            "count" : 660,
            "max" : [
                409
            ],
            "min" : [
                0
            ],
            "type" : "SCALAR"
        },
        {
            "bufferView" : 4,
            "componentType" : 5126,
            "count" : 410,
            "max" : [
                1.0,
                0.1958523690700531,
                1.0
            ],
            "min" : [
                -2.090083122253418,
                -0.1976882666349411,
                -1.0
            ],
            "type" : "VEC3"
        },
        {
            "bufferView" : 5,
            "componentType" : 5126,
            "count" : 410,
            "max" : [
                1.0,
                1.0,
                1.0
            ],
            "min" : [
                -1.0,
                -1.0,
                -1.0
            ],
            "type" : "VEC3"
        }
    ],
    "asset" : {
        "generator" : "Khronos Blender glTF 2.0 exporter",
        "version" : "2.0"
    },
    "bufferViews" : [
        {
            "buffer" : 0,
            "byteLength" : 5976,
            "byteOffset" : 0,
            "target" : 34963
        },
        {
            "buffer" : 0,
            "byteLength" : 24672,
            "byteOffset" : 5976,
            "target" : 34962
        },
        {
            "buffer" : 0,
            "byteLength" : 24672,
            "byteOffset" : 30648,
            "target" : 34962
        },
        {
            "buffer" : 0,
            "byteLength" : 1320,
            "byteOffset" : 55320,
            "target" : 34963
        },
        {
            "buffer" : 0,
            "byteLength" : 4920,
            "byteOffset" : 56640,
            "target" : 34962
        },
        {
            "buffer" : 0,
            "byteLength" : 4920,
            "byteOffset" : 61560,
            "target" : 34962
        }
    ],
    "buffers" : [
        {
            "byteLength" : 66480,
            "uri" : "001.bin"
        }
    ],
    "meshes" : [
        {
            "name" : "Cube.001",
            "primitives" : [
                {
                    "attributes" : {
                        "NORMAL" : 2,
                        "POSITION" : 1
                    },
                    "indices" : 0
                }
            ]
        },
        {
            "name" : "Plane.002",
            "primitives" : [
                {
                    "attributes" : {
                        "NORMAL" : 5,
                        "POSITION" : 4
                    },
                    "indices" : 3
                }
            ]
        }
    ],
    "nodes" : [
        {
            "name" : "Camera",
            "rotation" : [
                0.4955829679965973,
                0.05441467463970184,
                -0.01977255567908287,
                0.866628885269165
            ],
            "translation" : [
                0.4062044620513916,
                10.521068572998047,
                12.620556831359863
            ]
        },
        {
            "mesh" : 0,
            "name" : "Cube",
            "rotation" : [
                0.0,
                -0.7071068286895752,
                -0.0,
                0.7071067690849304
            ],
            "scale" : [
                0.2250271439552307,
                0.2250271439552307,
                0.2250271439552307
            ],
            "translation" : [
                5.255515098571777,
                0.2764790952205658,
                1.2537894248962402
            ]
        },
        {
            "mesh" : 1,
            "name" : "Plane.002",
            "rotation" : [
                0.5000000596046448,
                -0.5,
                -0.5,
                0.5000000596046448
            ],
            "scale" : [
                2.0,
                2.0,
                2.0
            ],
            "translation" : [
                2.3488707542419434,
                3.8129639625549316,
                -0.0
            ]
        }
    ],
    "scene" : 0,
    "scenes" : [
        {
            "name" : "Scene",
            "nodes" : [
                0,
                2,
                1
            ]
        }
    ]
}
